<svg xmlns="http://www.w3.org/2000/svg" viewBox="0 0 40 50" x="0px" y="0px"><path fill="#000000" d="M270,35 C261.163444,35 254,27.836556 254,19 C254,10.163444 261.163444,3 270,3 C278.836556,3 286,10.163444 286,19 C286,27.836556 278.836556,35 270,35 Z M258.544347,16.4557195 C262.221813,6.56339012 275.023048,4.25397753 279.738088,13.89568 C279.8594,14.1437486 280.158842,14.2465052 280.40691,14.1251933 C280.654979,14.0038814 280.757736,13.7044394 280.636424,13.4563708 C275.496654,2.94614513 261.565346,5.45942896 257.60702,16.1072688 C257.510798,16.3661046 257.642623,16.6539357 257.901458,16.7501577 C258.160294,16.8463797 258.448125,16.7145552 258.544347,16.4557195 Z M255.300341,20.5660673 C258.544427,20.8423762 260.045811,19.7043082 262.045435,16.5063647 C262.036768,16.5202261 262.365855,15.9922914 262.459269,15.8439243 C263.316598,14.4822513 263.924622,13.7015725 264.736866,13.0384346 C270.34359,8.46095293 278.332031,12.8086031 278.332031,18.7441406 C278.332031,20.1060246 278.146214,21.2296022 277.732291,22.8402068 C277.068003,25.4250015 276.991085,25.8413542 277.154037,26.9286262 C277.344298,28.1981127 278.062193,29.3604824 279.468908,30.6006447 C279.676047,30.7832589 279.992005,30.7633775 280.174619,30.5562382 C280.357234,30.349099 280.337352,30.0331414 280.130213,29.8505272 C278.888217,28.7555818 278.295084,27.7952183 278.142992,26.7804091 C278.009142,25.8873173 278.079345,25.5073155 278.700818,23.0891166 C279.133827,21.4042464 279.332031,20.2057674 279.332031,18.7441406 C279.332031,11.997281 270.391077,7.13123268 264.104443,12.2638115 C263.18748,13.0124447 262.523751,13.8646461 261.613031,15.3111204 C261.518199,15.4617391 261.187805,15.9917696 261.197546,15.9761922 C259.3755,18.8901376 258.166511,19.8065672 255.385206,19.5696749 C255.11006,19.5462399 254.868012,19.750292 254.844577,20.0254382 C254.821142,20.3005843 255.025194,20.5426322 255.300341,20.5660673 Z M280.643316,16.0496337 C280.698504,16.2119392 280.785651,16.5288731 280.874064,16.9734433 C281.342659,19.3297193 281.198622,21.9059176 280.012668,24.3186933 C279.963489,24.4187477 279.912593,24.5181882 279.859962,24.6170018 C279.730148,24.8607289 279.822493,25.1635439 280.066221,25.2933579 C280.309948,25.4231719 280.612763,25.330827 280.742577,25.0870998 C280.800318,24.9786903 280.856158,24.8695899 280.910115,24.759816 C282.206616,22.1221369 282.362633,19.3316801 281.854857,16.7783917 C281.757448,16.2885853 281.658775,15.9297324 281.590082,15.72771 C281.501185,15.4662679 281.217179,15.3263923 280.955737,15.4152891 C280.694295,15.5041859 280.55442,15.7881916 280.643316,16.0496337 Z M256.268799,24.7128906 C259.610997,24.7128906 263.300379,22.2310348 265.474535,17.9762942 C267.795795,13.4336774 274.406348,14.0507407 274.9294,19.6679395 C275.012704,20.5625662 274.908212,21.2907194 274.465415,23.476286 C274.18398,24.8653983 274.055811,25.6355195 273.991942,26.5073573 C273.810514,28.983953 274.40201,30.9481716 276.120883,32.6017827 C276.319886,32.7932304 276.636409,32.7871053 276.827857,32.5881019 C277.019305,32.3890984 277.01318,32.0725752 276.814176,31.8811275 C275.331677,30.4549155 274.827972,28.7822275 274.98927,26.5804186 C275.049142,25.7631286 275.172104,25.0243014 275.445503,23.6748522 C275.910862,21.3779209 276.021295,20.6083686 275.925092,19.5752245 C275.302421,12.8881829 267.331739,12.1441582 264.584059,17.5212644 C262.573847,21.4551717 259.217655,23.7128906 256.268799,23.7128906 C255.992656,23.7128906 255.768799,23.9367483 255.768799,24.2128906 C255.768799,24.489033 255.992656,24.7128906 256.268799,24.7128906 Z M259.001318,28.5037606 C259.082092,28.4715596 259.227424,28.4098375 259.428157,28.3186112 C259.759243,28.1681439 260.127271,27.9882475 260.5231,27.7788996 C261.653174,27.1812215 262.783189,26.4658435 263.840118,25.6315583 C265.705808,24.1588792 267.140992,22.476155 267.970024,20.5753799 C269.115371,17.9493669 271.740804,18.9096504 271.443072,22.1064658 C271.105605,25.7299383 268.815199,30.0976251 266.054373,32.4562687 C265.844418,32.6356385 265.819624,32.9512486 265.998993,33.1612036 C266.178363,33.3711585 266.493973,33.3959527 266.703928,33.2165828 C269.661342,30.6899899 272.07701,26.0834338 272.438763,22.1991983 C272.834871,17.946092 268.687454,16.4291248 267.053414,20.1755966 C266.298064,21.9074377 264.967065,23.4680071 263.220535,24.8466276 C262.215017,25.640331 261.135267,26.3238878 260.055577,26.8949188 C259.677989,27.0946191 259.327843,27.2657749 259.014414,27.4082174 C258.828438,27.4927369 258.69755,27.5483252 258.631007,27.5748527 C258.374496,27.6771112 258.24945,27.9679513 258.351708,28.2244621 C258.453967,28.4809729 258.744807,28.6060191 259.001318,28.5037606 Z M262.187732,31.6886589 C262.258782,31.6534215 262.383395,31.5865303 262.553954,31.4870167 C262.833161,31.3241117 263.142929,31.1266954 263.475626,30.8937661 C264.422569,30.2307869 265.368363,29.414128 266.251335,28.4353803 C267.66971,26.8631537 268.787499,25.0243234 269.489274,22.9062822 C269.576126,22.6441536 269.434036,22.3612493 269.171907,22.2743976 C268.909779,22.187546 268.626874,22.329636 268.540023,22.5917646 C267.884043,24.5715884 266.83837,26.2917845 265.508833,27.7655363 C264.679208,28.685151 263.790076,29.4528832 262.902094,30.0745826 C262.592567,30.2912908 262.305984,30.4739311 262.050004,30.6232839 C261.899451,30.711125 261.794699,30.7673546 261.743421,30.7927864 C261.496032,30.9154796 261.394947,31.21549 261.51764,31.4628783 C261.640333,31.7102667 261.940343,31.8113521 262.187732,31.6886589 Z M271.905485,29.7340082 C271.776868,29.9126779 271.592723,30.2099548 271.409152,30.5889837 C271.116934,31.1923441 270.931792,31.7995085 270.909278,32.38742 C270.895634,32.7436928 270.94345,33.0825353 271.061607,33.3976936 C271.158547,33.6562612 271.446743,33.7872862 271.705311,33.6903461 C271.963878,33.593406 272.094903,33.30521 271.997963,33.0466424 C271.929018,32.8627442 271.899751,32.6553469 271.908546,32.4256873 C271.924975,31.9966644 272.071972,31.5145926 272.309154,31.0248706 C272.464678,30.7037502 272.619627,30.4536061 272.717073,30.3182379 C272.878404,30.0941239 272.827508,29.7816594 272.603394,29.6203289 C272.37928,29.4589983 272.066816,29.5098943 271.905485,29.7340082 Z" transform="translate(-250)"/><text x="0" y="55" fill="#000000" font-size="5px" font-weight="bold" font-family="'Helvetica Neue', Helvetica, Arial-Unicode, Arial, Sans-serif">Created by K Ξ L L Ξ R</text><text x="0" y="60" fill="#000000" font-size="5px" font-weight="bold" font-family="'Helvetica Neue', Helvetica, Arial-Unicode, Arial, Sans-serif">from the Noun Project</text></svg>