<svg xmlns="http://www.w3.org/2000/svg" xmlns:xlink="http://www.w3.org/1999/xlink" version="1.1" x="0px" y="0px" viewBox="0 0 100 125" enable-background="new 0 0 100 100" xml:space="preserve"><g><path fill="#000000" d="M50,14.491c-5.568,0-10.746,1.538-15.09,4.222c-1.058,0.643-1.42,2.181-0.779,3.244   s2.199,1.454,3.229,0.811c3.619-2.237,7.935-3.551,12.64-3.551c12.751,0,22.773,9.506,22.773,21.193v5.173   c0,1.258,1.113,2.404,2.367,2.404c1.252,0,2.365-1.146,2.365-2.404V40.41C77.506,26.011,65.09,14.491,50,14.491L50,14.491z    M28.118,24.668c-3.675,4.222-5.623,9.814-5.623,15.741v27.009c-0.028,1.258,1.113,2.404,2.366,2.404   c1.225,0,2.366-1.146,2.339-2.404V40.41c0-4.809,1.697-9.199,4.565-12.75c0.612-0.699,0.835-1.817,0.334-2.572   C30.93,23.354,29.315,23.298,28.118,24.668L28.118,24.668z M50,24.221c-10.469,0-19.127,7.997-19.127,18.062v4.613   c-0.027,1.258,1.114,2.404,2.339,2.404c1.253,0,2.395-1.146,2.366-2.404v-4.613c0-7.326,6.32-13.337,14.422-13.337   c8.101,0,14.392,6.011,14.392,13.337v33.021c-0.027,1.229,1.115,2.376,2.34,2.376c1.252,0,2.395-1.146,2.365-2.376V42.283   C69.098,32.218,60.469,24.221,50,24.221L50,24.221z M50,33.644c-5.818,0-10.774,4.474-10.774,10.205v37.689   c0,1.23,1.114,2.405,2.366,2.405c1.253,0,2.367-1.175,2.367-2.405V43.849c0-2.992,2.561-5.48,6.041-5.48   c3.453,0,6.013,2.488,6.013,5.48v10.094c-0.027,1.23,1.113,2.376,2.367,2.376c1.225,0,2.365-1.146,2.338-2.376V43.849   C60.719,38.117,55.818,33.644,50,33.644L50,33.644z M49.944,42.06c-1.225,0.028-2.311,1.174-2.311,2.404v22.284   c-0.027,1.258,1.114,2.404,2.367,2.404c1.253,0,2.367-1.146,2.337-2.404V44.464C52.367,43.206,51.197,42.031,49.944,42.06   L49.944,42.06z M75.084,50.755c-1.225,0.028-2.311,1.146-2.311,2.377v14.287c0,1.258,1.113,2.404,2.367,2.404   c1.252,0,2.365-1.146,2.365-2.404V53.132C77.506,51.873,76.338,50.727,75.084,50.755L75.084,50.755z M33.212,52.32   c-1.253,0.028-2.366,1.146-2.339,2.405v20.578c-0.027,1.229,1.114,2.376,2.339,2.376c1.253,0,2.395-1.146,2.366-2.376V54.726   C35.607,53.467,34.438,52.32,33.212,52.32L33.212,52.32z M58.102,59.422c-1.141,0.141-2.115,1.23-2.088,2.405v19.711   c-0.027,1.23,1.113,2.405,2.367,2.405c1.225,0,2.365-1.175,2.338-2.405V61.827c0.027-1.259-1.113-2.405-2.367-2.405   C58.27,59.422,58.186,59.422,58.102,59.422L58.102,59.422z M49.694,72.451c-1.141,0.141-2.088,1.259-2.061,2.433v8.221   c-0.027,1.258,1.114,2.404,2.367,2.404c1.253,0,2.367-1.146,2.337-2.404v-8.221c0.029-1.286-1.113-2.46-2.394-2.433   C49.861,72.451,49.778,72.451,49.694,72.451L49.694,72.451z"/></g><text x="0" y="115" fill="#000000" font-size="5px" font-weight="bold" font-family="'Helvetica Neue', Helvetica, Arial-Unicode, Arial, Sans-serif">Created by romzicon</text><text x="0" y="120" fill="#000000" font-size="5px" font-weight="bold" font-family="'Helvetica Neue', Helvetica, Arial-Unicode, Arial, Sans-serif">from the Noun Project</text></svg>